<?xml version="1.0" standalone="no"?>
<!DOCTYPE svg PUBLIC "-//W3C//DTD SVG 20010904//EN"
 "http://www.w3.org/TR/2001/REC-SVG-20010904/DTD/svg10.dtd">
<svg version="1.0" xmlns="http://www.w3.org/2000/svg"
 width="50.000000pt" height="50.000000pt" viewBox="0 0 50.000000 50.000000"
 preserveAspectRatio="xMidYMid meet">
<metadata>
Created by potrace 1.16, written by Peter Selinger 2001-2019
</metadata>
<g transform="translate(0.000000,50.000000) scale(0.025907,-0.025907)"
fill="#000000" stroke="none">
<path d="M765 1811 c-38 -10 -88 -25 -110 -35 -22 -10 -51 -23 -65 -29 -71
-32 -174 -109 -250 -187 -139 -142 -214 -301 -241 -505 -20 -155 11 -345 78
-480 236 -470 789 -642 1236 -383 195 113 345 308 407 528 48 171 34 405 -35
563 -56 130 -95 187 -200 292 -130 129 -243 192 -431 239 -85 22 -295 20 -389
-3z m-215 -617 c72 -116 105 -162 111 -153 5 8 50 82 102 164 l93 150 102 3
102 3 -2 -403 -3 -403 -92 -3 -93 -3 0 253 0 253 -105 -160 c-57 -88 -108
-161 -113 -163 -4 -1 -55 70 -112 159 l-105 161 -3 -251 -2 -251 -90 0 -90 0
0 405 0 405 98 0 99 0 103 -166z m886 -98 l139 -185 3 185 2 184 70 0 70 0 0
-315 0 -315 -59 0 -58 0 -74 98 c-41 53 -106 139 -146 190 l-73 93 -2 -188 -3
-188 -70 0 -70 0 -3 313 -2 312 69 0 69 0 138 -184z"/>
</g>
</svg>
